<?xml version="1.0" encoding="UTF-8"?>
<svg xmlns="http://www.w3.org/2000/svg" xmlns:xlink="http://www.w3.org/1999/xlink" viewBox="0 0 90 90" width="90px" height="90px">
<g id="surface276409232">
<path style=" stroke:none;fill-rule:nonzero;fill:rgb(88.235295%,13.333334%,80.392158%);fill-opacity:1;" d="M 33.496094 60.582031 C 35.914062 62.3125 41.925781 66.351562 43.164062 67.65625 C 44.398438 68.960938 43.234375 70.953125 43.234375 70.953125 L 45.085938 71.710938 C 45.496094 70.816406 47.972656 67.519531 49.621094 65.457031 C 51.109375 63.597656 52.398438 60.339844 52.441406 57.949219 C 52.585938 50.230469 42.34375 46.566406 37.597656 42.238281 C 35.261719 40.105469 37.117188 38.871094 37.117188 38.871094 L 35.535156 37.84375 C 29.425781 44.777344 22.984375 53.058594 33.496094 60.582031 Z M 38.765625 34.816406 C 44.671875 40.035156 55.070312 45.460938 55.804688 48.964844 C 56.757812 53.535156 54.566406 56.113281 54.566406 56.113281 L 55.75 57.074219 C 56.386719 56.164062 57.101562 55.300781 57.757812 54.402344 C 60.433594 50.734375 63.015625 47.011719 65.644531 43.316406 C 71.65625 34.863281 69.40625 26.847656 60.351562 20.371094 C 55.738281 17.078125 51.253906 13.59375 46.597656 10.355469 C 43.984375 8.15625 45.773438 4.035156 45.773438 4.035156 L 44.671875 3.074219 C 44.671875 3.074219 34.816406 15.027344 33.953125 19.839844 C 33.136719 24.445312 32.859375 29.59375 38.765625 34.816406 Z M 69 81 L 67.023438 75 L 22.976562 75 L 21 81 L 33.570312 81 L 35.464844 87 L 54.652344 87 L 56.449219 81 Z M 69 81 "/>
</g>
</svg>
