
        <svg xmlns="http://www.w3.org/2000/svg" xmlns:xlink="http://www.w3.org/1999/xlink" version="1.1" width="3162.136418900351" height="895.5302057525209" viewBox="0 0 3162.136418900351 895.5302057525209">
			
			<g transform="scale(8.10682094501756) translate(10, 10)">
				<defs id="SvgjsDefs2022"/><g id="SvgjsG2023" featureKey="symbolFeature-0" transform="matrix(0.21353719241502483,0,0,0.21353719241502483,0.6278159549811535,-2.0917811507420254e-8)" fill="#fff"><title xmlns="http://www.w3.org/2000/svg">Slice 1</title><desc xmlns="http://www.w3.org/2000/svg">Created with Sketch.</desc><g xmlns="http://www.w3.org/2000/svg" stroke="none" stroke-width="1" fill-rule="evenodd" xmlns:sketch="http://www.bohemiancoding.com/sketch/ns" sketch:type="MSPage"><g sketch:type="MSLayerGroup"><g sketch:type="MSShapeGroup"><g transform="translate(180.000000, 0.000000)"><g><g><path d="M24.6305928,3.90110266 L24.6305928,33.9011027 L39.6305928,33.9011027 L24.6305928,3.90110266 Z" transform="translate(39.630593, 18.901103) rotate(18.000000) translate(-39.630593, -18.901103) "/><g transform="translate(15.000000, 15.000000) scale(-1, 1) translate(-15.000000, -15.000000) "><path d="M-5.36940717,3.90110266 L-5.36940717,33.9011027 L9.63059283,33.9011027 L-5.36940717,3.90110266 Z" transform="translate(9.630593, 18.901103) rotate(18.000000) translate(-9.630593, -18.901103) "/></g></g><g><g transform="translate(44.265848, 25.364745) rotate(72.000000) translate(-44.265848, -25.364745) translate(14.265848, 10.364745)"><g><path d="M24.6305928,3.90110266 L24.6305928,33.9011027 L39.6305928,33.9011027 L24.6305928,3.90110266 Z" transform="translate(39.630593, 18.901103) rotate(18.000000) translate(-39.630593, -18.901103) "/><g transform="translate(15.000000, 15.000000) scale(-1, 1) translate(-15.000000, -15.000000) "><path d="M-5.36940717,3.90110266 L-5.36940717,33.9011027 L9.63059283,33.9011027 L-5.36940717,3.90110266 Z" transform="translate(9.630593, 18.901103) rotate(18.000000) translate(-9.630593, -18.901103) "/></g></g></g><g transform="translate(38.816779, 42.135255) rotate(144.000000) translate(-38.816779, -42.135255) translate(8.816779, 27.135255)"><g><path d="M24.6305928,3.90110266 L24.6305928,33.9011027 L39.6305928,33.9011027 L24.6305928,3.90110266 Z" transform="translate(39.630593, 18.901103) rotate(18.000000) translate(-39.630593, -18.901103) "/><g transform="translate(15.000000, 15.000000) scale(-1, 1) translate(-15.000000, -15.000000) "><path d="M-5.36940717,3.90110266 L-5.36940717,33.9011027 L9.63059283,33.9011027 L-5.36940717,3.90110266 Z" transform="translate(9.630593, 18.901103) rotate(18.000000) translate(-9.630593, -18.901103) "/></g></g></g></g><g transform="translate(30.000000, 30.000000) scale(-1, 1) translate(-30.000000, -30.000000) "><g><g transform="translate(44.265848, 25.364745) rotate(72.000000) translate(-44.265848, -25.364745) translate(14.265848, 10.364745)"><g><path d="M24.6305928,3.90110266 L24.6305928,33.9011027 L39.6305928,33.9011027 L24.6305928,3.90110266 Z" transform="translate(39.630593, 18.901103) rotate(18.000000) translate(-39.630593, -18.901103) "/><g transform="translate(15.000000, 15.000000) scale(-1, 1) translate(-15.000000, -15.000000) "><path d="M-5.36940717,3.90110266 L-5.36940717,33.9011027 L9.63059283,33.9011027 L-5.36940717,3.90110266 Z" transform="translate(9.630593, 18.901103) rotate(18.000000) translate(-9.630593, -18.901103) "/></g></g></g><g transform="translate(38.816779, 42.135255) rotate(144.000000) translate(-38.816779, -42.135255) translate(8.816779, 27.135255)"><g><path d="M24.6305928,3.90110266 L24.6305928,33.9011027 L39.6305928,33.9011027 L24.6305928,3.90110266 Z" transform="translate(39.630593, 18.901103) rotate(18.000000) translate(-39.630593, -18.901103) "/><g transform="translate(15.000000, 15.000000) scale(-1, 1) translate(-15.000000, -15.000000) "><path d="M-5.36940717,3.90110266 L-5.36940717,33.9011027 L9.63059283,33.9011027 L-5.36940717,3.90110266 Z" transform="translate(9.630593, 18.901103) rotate(18.000000) translate(-9.630593, -18.901103) "/></g></g></g></g></g></g></g><g transform="translate(180.000000, 360.000000)"><g><g><path d="M24.6305928,3.90110266 L24.6305928,33.9011027 L39.6305928,33.9011027 L24.6305928,3.90110266 Z" transform="translate(39.630593, 18.901103) rotate(18.000000) translate(-39.630593, -18.901103) "/><g transform="translate(15.000000, 15.000000) scale(-1, 1) translate(-15.000000, -15.000000) "><path d="M-5.36940717,3.90110266 L-5.36940717,33.9011027 L9.63059283,33.9011027 L-5.36940717,3.90110266 Z" transform="translate(9.630593, 18.901103) rotate(18.000000) translate(-9.630593, -18.901103) "/></g></g><g><g transform="translate(44.265848, 25.364745) rotate(72.000000) translate(-44.265848, -25.364745) translate(14.265848, 10.364745)"><g><path d="M24.6305928,3.90110266 L24.6305928,33.9011027 L39.6305928,33.9011027 L24.6305928,3.90110266 Z" transform="translate(39.630593, 18.901103) rotate(18.000000) translate(-39.630593, -18.901103) "/><g transform="translate(15.000000, 15.000000) scale(-1, 1) translate(-15.000000, -15.000000) "><path d="M-5.36940717,3.90110266 L-5.36940717,33.9011027 L9.63059283,33.9011027 L-5.36940717,3.90110266 Z" transform="translate(9.630593, 18.901103) rotate(18.000000) translate(-9.630593, -18.901103) "/></g></g></g><g transform="translate(38.816779, 42.135255) rotate(144.000000) translate(-38.816779, -42.135255) translate(8.816779, 27.135255)"><g><path d="M24.6305928,3.90110266 L24.6305928,33.9011027 L39.6305928,33.9011027 L24.6305928,3.90110266 Z" transform="translate(39.630593, 18.901103) rotate(18.000000) translate(-39.630593, -18.901103) "/><g transform="translate(15.000000, 15.000000) scale(-1, 1) translate(-15.000000, -15.000000) "><path d="M-5.36940717,3.90110266 L-5.36940717,33.9011027 L9.63059283,33.9011027 L-5.36940717,3.90110266 Z" transform="translate(9.630593, 18.901103) rotate(18.000000) translate(-9.630593, -18.901103) "/></g></g></g></g><g transform="translate(30.000000, 30.000000) scale(-1, 1) translate(-30.000000, -30.000000) "><g><g transform="translate(44.265848, 25.364745) rotate(72.000000) translate(-44.265848, -25.364745) translate(14.265848, 10.364745)"><g><path d="M24.6305928,3.90110266 L24.6305928,33.9011027 L39.6305928,33.9011027 L24.6305928,3.90110266 Z" transform="translate(39.630593, 18.901103) rotate(18.000000) translate(-39.630593, -18.901103) "/><g transform="translate(15.000000, 15.000000) scale(-1, 1) translate(-15.000000, -15.000000) "><path d="M-5.36940717,3.90110266 L-5.36940717,33.9011027 L9.63059283,33.9011027 L-5.36940717,3.90110266 Z" transform="translate(9.630593, 18.901103) rotate(18.000000) translate(-9.630593, -18.901103) "/></g></g></g><g transform="translate(38.816779, 42.135255) rotate(144.000000) translate(-38.816779, -42.135255) translate(8.816779, 27.135255)"><g><path d="M24.6305928,3.90110266 L24.6305928,33.9011027 L39.6305928,33.9011027 L24.6305928,3.90110266 Z" transform="translate(39.630593, 18.901103) rotate(18.000000) translate(-39.630593, -18.901103) "/><g transform="translate(15.000000, 15.000000) scale(-1, 1) translate(-15.000000, -15.000000) "><path d="M-5.36940717,3.90110266 L-5.36940717,33.9011027 L9.63059283,33.9011027 L-5.36940717,3.90110266 Z" transform="translate(9.630593, 18.901103) rotate(18.000000) translate(-9.630593, -18.901103) "/></g></g></g></g></g></g></g><g><g transform="translate(0.000000, 180.000000)"><g><g><path d="M24.6305928,3.90110266 L24.6305928,33.9011027 L39.6305928,33.9011027 L24.6305928,3.90110266 Z" transform="translate(39.630593, 18.901103) rotate(18.000000) translate(-39.630593, -18.901103) "/><g transform="translate(15.000000, 15.000000) scale(-1, 1) translate(-15.000000, -15.000000) "><path d="M-5.36940717,3.90110266 L-5.36940717,33.9011027 L9.63059283,33.9011027 L-5.36940717,3.90110266 Z" transform="translate(9.630593, 18.901103) rotate(18.000000) translate(-9.630593, -18.901103) "/></g></g><g><g transform="translate(44.265848, 25.364745) rotate(72.000000) translate(-44.265848, -25.364745) translate(14.265848, 10.364745)"><g><path d="M24.6305928,3.90110266 L24.6305928,33.9011027 L39.6305928,33.9011027 L24.6305928,3.90110266 Z" transform="translate(39.630593, 18.901103) rotate(18.000000) translate(-39.630593, -18.901103) "/><g transform="translate(15.000000, 15.000000) scale(-1, 1) translate(-15.000000, -15.000000) "><path d="M-5.36940717,3.90110266 L-5.36940717,33.9011027 L9.63059283,33.9011027 L-5.36940717,3.90110266 Z" transform="translate(9.630593, 18.901103) rotate(18.000000) translate(-9.630593, -18.901103) "/></g></g></g><g transform="translate(38.816779, 42.135255) rotate(144.000000) translate(-38.816779, -42.135255) translate(8.816779, 27.135255)"><g><path d="M24.6305928,3.90110266 L24.6305928,33.9011027 L39.6305928,33.9011027 L24.6305928,3.90110266 Z" transform="translate(39.630593, 18.901103) rotate(18.000000) translate(-39.630593, -18.901103) "/><g transform="translate(15.000000, 15.000000) scale(-1, 1) translate(-15.000000, -15.000000) "><path d="M-5.36940717,3.90110266 L-5.36940717,33.9011027 L9.63059283,33.9011027 L-5.36940717,3.90110266 Z" transform="translate(9.630593, 18.901103) rotate(18.000000) translate(-9.630593, -18.901103) "/></g></g></g></g><g transform="translate(30.000000, 30.000000) scale(-1, 1) translate(-30.000000, -30.000000) "><g><g transform="translate(44.265848, 25.364745) rotate(72.000000) translate(-44.265848, -25.364745) translate(14.265848, 10.364745)"><g><path d="M24.6305928,3.90110266 L24.6305928,33.9011027 L39.6305928,33.9011027 L24.6305928,3.90110266 Z" transform="translate(39.630593, 18.901103) rotate(18.000000) translate(-39.630593, -18.901103) "/><g transform="translate(15.000000, 15.000000) scale(-1, 1) translate(-15.000000, -15.000000) "><path d="M-5.36940717,3.90110266 L-5.36940717,33.9011027 L9.63059283,33.9011027 L-5.36940717,3.90110266 Z" transform="translate(9.630593, 18.901103) rotate(18.000000) translate(-9.630593, -18.901103) "/></g></g></g><g transform="translate(38.816779, 42.135255) rotate(144.000000) translate(-38.816779, -42.135255) translate(8.816779, 27.135255)"><g><path d="M24.6305928,3.90110266 L24.6305928,33.9011027 L39.6305928,33.9011027 L24.6305928,3.90110266 Z" transform="translate(39.630593, 18.901103) rotate(18.000000) translate(-39.630593, -18.901103) "/><g transform="translate(15.000000, 15.000000) scale(-1, 1) translate(-15.000000, -15.000000) "><path d="M-5.36940717,3.90110266 L-5.36940717,33.9011027 L9.63059283,33.9011027 L-5.36940717,3.90110266 Z" transform="translate(9.630593, 18.901103) rotate(18.000000) translate(-9.630593, -18.901103) "/></g></g></g></g></g></g></g><g transform="translate(120.000000, 54.115427) rotate(216.000000) translate(-120.000000, -54.115427) translate(90.000000, 24.115427)"><g><g><path d="M24.6305928,3.90110266 L24.6305928,33.9011027 L39.6305928,33.9011027 L24.6305928,3.90110266 Z" transform="translate(39.630593, 18.901103) rotate(18.000000) translate(-39.630593, -18.901103) "/><g transform="translate(15.000000, 15.000000) scale(-1, 1) translate(-15.000000, -15.000000) "><path d="M-5.36940717,3.90110266 L-5.36940717,33.9011027 L9.63059283,33.9011027 L-5.36940717,3.90110266 Z" transform="translate(9.630593, 18.901103) rotate(18.000000) translate(-9.630593, -18.901103) "/></g></g><g><g transform="translate(44.265848, 25.364745) rotate(72.000000) translate(-44.265848, -25.364745) translate(14.265848, 10.364745)"><g><path d="M24.6305928,3.90110266 L24.6305928,33.9011027 L39.6305928,33.9011027 L24.6305928,3.90110266 Z" transform="translate(39.630593, 18.901103) rotate(18.000000) translate(-39.630593, -18.901103) "/><g transform="translate(15.000000, 15.000000) scale(-1, 1) translate(-15.000000, -15.000000) "><path d="M-5.36940717,3.90110266 L-5.36940717,33.9011027 L9.63059283,33.9011027 L-5.36940717,3.90110266 Z" transform="translate(9.630593, 18.901103) rotate(18.000000) translate(-9.630593, -18.901103) "/></g></g></g><g transform="translate(38.816779, 42.135255) rotate(144.000000) translate(-38.816779, -42.135255) translate(8.816779, 27.135255)"><g><path d="M24.6305928,3.90110266 L24.6305928,33.9011027 L39.6305928,33.9011027 L24.6305928,3.90110266 Z" transform="translate(39.630593, 18.901103) rotate(18.000000) translate(-39.630593, -18.901103) "/><g transform="translate(15.000000, 15.000000) scale(-1, 1) translate(-15.000000, -15.000000) "><path d="M-5.36940717,3.90110266 L-5.36940717,33.9011027 L9.63059283,33.9011027 L-5.36940717,3.90110266 Z" transform="translate(9.630593, 18.901103) rotate(18.000000) translate(-9.630593, -18.901103) "/></g></g></g></g><g transform="translate(30.000000, 30.000000) scale(-1, 1) translate(-30.000000, -30.000000) "><g><g transform="translate(44.265848, 25.364745) rotate(72.000000) translate(-44.265848, -25.364745) translate(14.265848, 10.364745)"><g><path d="M24.6305928,3.90110266 L24.6305928,33.9011027 L39.6305928,33.9011027 L24.6305928,3.90110266 Z" transform="translate(39.630593, 18.901103) rotate(18.000000) translate(-39.630593, -18.901103) "/><g transform="translate(15.000000, 15.000000) scale(-1, 1) translate(-15.000000, -15.000000) "><path d="M-5.36940717,3.90110266 L-5.36940717,33.9011027 L9.63059283,33.9011027 L-5.36940717,3.90110266 Z" transform="translate(9.630593, 18.901103) rotate(18.000000) translate(-9.630593, -18.901103) "/></g></g></g><g transform="translate(38.816779, 42.135255) rotate(144.000000) translate(-38.816779, -42.135255) translate(8.816779, 27.135255)"><g><path d="M24.6305928,3.90110266 L24.6305928,33.9011027 L39.6305928,33.9011027 L24.6305928,3.90110266 Z" transform="translate(39.630593, 18.901103) rotate(18.000000) translate(-39.630593, -18.901103) "/><g transform="translate(15.000000, 15.000000) scale(-1, 1) translate(-15.000000, -15.000000) "><path d="M-5.36940717,3.90110266 L-5.36940717,33.9011027 L9.63059283,33.9011027 L-5.36940717,3.90110266 Z" transform="translate(9.630593, 18.901103) rotate(18.000000) translate(-9.630593, -18.901103) "/></g></g></g></g></g></g></g><g transform="translate(54.115427, 120.000000) rotate(144.000000) translate(-54.115427, -120.000000) translate(24.115427, 90.000000)"><g><g><path d="M24.6305928,3.90110266 L24.6305928,33.9011027 L39.6305928,33.9011027 L24.6305928,3.90110266 Z" transform="translate(39.630593, 18.901103) rotate(18.000000) translate(-39.630593, -18.901103) "/><g transform="translate(15.000000, 15.000000) scale(-1, 1) translate(-15.000000, -15.000000) "><path d="M-5.36940717,3.90110266 L-5.36940717,33.9011027 L9.63059283,33.9011027 L-5.36940717,3.90110266 Z" transform="translate(9.630593, 18.901103) rotate(18.000000) translate(-9.630593, -18.901103) "/></g></g><g><g transform="translate(44.265848, 25.364745) rotate(72.000000) translate(-44.265848, -25.364745) translate(14.265848, 10.364745)"><g><path d="M24.6305928,3.90110266 L24.6305928,33.9011027 L39.6305928,33.9011027 L24.6305928,3.90110266 Z" transform="translate(39.630593, 18.901103) rotate(18.000000) translate(-39.630593, -18.901103) "/><g transform="translate(15.000000, 15.000000) scale(-1, 1) translate(-15.000000, -15.000000) "><path d="M-5.36940717,3.90110266 L-5.36940717,33.9011027 L9.63059283,33.9011027 L-5.36940717,3.90110266 Z" transform="translate(9.630593, 18.901103) rotate(18.000000) translate(-9.630593, -18.901103) "/></g></g></g><g transform="translate(38.816779, 42.135255) rotate(144.000000) translate(-38.816779, -42.135255) translate(8.816779, 27.135255)"><g><path d="M24.6305928,3.90110266 L24.6305928,33.9011027 L39.6305928,33.9011027 L24.6305928,3.90110266 Z" transform="translate(39.630593, 18.901103) rotate(18.000000) translate(-39.630593, -18.901103) "/><g transform="translate(15.000000, 15.000000) scale(-1, 1) translate(-15.000000, -15.000000) "><path d="M-5.36940717,3.90110266 L-5.36940717,33.9011027 L9.63059283,33.9011027 L-5.36940717,3.90110266 Z" transform="translate(9.630593, 18.901103) rotate(18.000000) translate(-9.630593, -18.901103) "/></g></g></g></g><g transform="translate(30.000000, 30.000000) scale(-1, 1) translate(-30.000000, -30.000000) "><g><g transform="translate(44.265848, 25.364745) rotate(72.000000) translate(-44.265848, -25.364745) translate(14.265848, 10.364745)"><g><path d="M24.6305928,3.90110266 L24.6305928,33.9011027 L39.6305928,33.9011027 L24.6305928,3.90110266 Z" transform="translate(39.630593, 18.901103) rotate(18.000000) translate(-39.630593, -18.901103) "/><g transform="translate(15.000000, 15.000000) scale(-1, 1) translate(-15.000000, -15.000000) "><path d="M-5.36940717,3.90110266 L-5.36940717,33.9011027 L9.63059283,33.9011027 L-5.36940717,3.90110266 Z" transform="translate(9.630593, 18.901103) rotate(18.000000) translate(-9.630593, -18.901103) "/></g></g></g><g transform="translate(38.816779, 42.135255) rotate(144.000000) translate(-38.816779, -42.135255) translate(8.816779, 27.135255)"><g><path d="M24.6305928,3.90110266 L24.6305928,33.9011027 L39.6305928,33.9011027 L24.6305928,3.90110266 Z" transform="translate(39.630593, 18.901103) rotate(18.000000) translate(-39.630593, -18.901103) "/><g transform="translate(15.000000, 15.000000) scale(-1, 1) translate(-15.000000, -15.000000) "><path d="M-5.36940717,3.90110266 L-5.36940717,33.9011027 L9.63059283,33.9011027 L-5.36940717,3.90110266 Z" transform="translate(9.630593, 18.901103) rotate(18.000000) translate(-9.630593, -18.901103) "/></g></g></g></g></g></g></g><g transform="translate(54.115427, 300.000000) rotate(72.000000) translate(-54.115427, -300.000000) translate(24.115427, 270.000000)"><g><g><path d="M24.6305928,3.90110266 L24.6305928,33.9011027 L39.6305928,33.9011027 L24.6305928,3.90110266 Z" transform="translate(39.630593, 18.901103) rotate(18.000000) translate(-39.630593, -18.901103) "/><g transform="translate(15.000000, 15.000000) scale(-1, 1) translate(-15.000000, -15.000000) "><path d="M-5.36940717,3.90110266 L-5.36940717,33.9011027 L9.63059283,33.9011027 L-5.36940717,3.90110266 Z" transform="translate(9.630593, 18.901103) rotate(18.000000) translate(-9.630593, -18.901103) "/></g></g><g><g transform="translate(44.265848, 25.364745) rotate(72.000000) translate(-44.265848, -25.364745) translate(14.265848, 10.364745)"><g><path d="M24.6305928,3.90110266 L24.6305928,33.9011027 L39.6305928,33.9011027 L24.6305928,3.90110266 Z" transform="translate(39.630593, 18.901103) rotate(18.000000) translate(-39.630593, -18.901103) "/><g transform="translate(15.000000, 15.000000) scale(-1, 1) translate(-15.000000, -15.000000) "><path d="M-5.36940717,3.90110266 L-5.36940717,33.9011027 L9.63059283,33.9011027 L-5.36940717,3.90110266 Z" transform="translate(9.630593, 18.901103) rotate(18.000000) translate(-9.630593, -18.901103) "/></g></g></g><g transform="translate(38.816779, 42.135255) rotate(144.000000) translate(-38.816779, -42.135255) translate(8.816779, 27.135255)"><g><path d="M24.6305928,3.90110266 L24.6305928,33.9011027 L39.6305928,33.9011027 L24.6305928,3.90110266 Z" transform="translate(39.630593, 18.901103) rotate(18.000000) translate(-39.630593, -18.901103) "/><g transform="translate(15.000000, 15.000000) scale(-1, 1) translate(-15.000000, -15.000000) "><path d="M-5.36940717,3.90110266 L-5.36940717,33.9011027 L9.63059283,33.9011027 L-5.36940717,3.90110266 Z" transform="translate(9.630593, 18.901103) rotate(18.000000) translate(-9.630593, -18.901103) "/></g></g></g></g><g transform="translate(30.000000, 30.000000) scale(-1, 1) translate(-30.000000, -30.000000) "><g><g transform="translate(44.265848, 25.364745) rotate(72.000000) translate(-44.265848, -25.364745) translate(14.265848, 10.364745)"><g><path d="M24.6305928,3.90110266 L24.6305928,33.9011027 L39.6305928,33.9011027 L24.6305928,3.90110266 Z" transform="translate(39.630593, 18.901103) rotate(18.000000) translate(-39.630593, -18.901103) "/><g transform="translate(15.000000, 15.000000) scale(-1, 1) translate(-15.000000, -15.000000) "><path d="M-5.36940717,3.90110266 L-5.36940717,33.9011027 L9.63059283,33.9011027 L-5.36940717,3.90110266 Z" transform="translate(9.630593, 18.901103) rotate(18.000000) translate(-9.630593, -18.901103) "/></g></g></g><g transform="translate(38.816779, 42.135255) rotate(144.000000) translate(-38.816779, -42.135255) translate(8.816779, 27.135255)"><g><path d="M24.6305928,3.90110266 L24.6305928,33.9011027 L39.6305928,33.9011027 L24.6305928,3.90110266 Z" transform="translate(39.630593, 18.901103) rotate(18.000000) translate(-39.630593, -18.901103) "/><g transform="translate(15.000000, 15.000000) scale(-1, 1) translate(-15.000000, -15.000000) "><path d="M-5.36940717,3.90110266 L-5.36940717,33.9011027 L9.63059283,33.9011027 L-5.36940717,3.90110266 Z" transform="translate(9.630593, 18.901103) rotate(18.000000) translate(-9.630593, -18.901103) "/></g></g></g></g></g></g></g><g transform="translate(120.000000, 365.884573) rotate(72.000000) translate(-120.000000, -365.884573) translate(90.000000, 335.884573)"><g><g><path d="M24.6305928,3.90110266 L24.6305928,33.9011027 L39.6305928,33.9011027 L24.6305928,3.90110266 Z" transform="translate(39.630593, 18.901103) rotate(18.000000) translate(-39.630593, -18.901103) "/><g transform="translate(15.000000, 15.000000) scale(-1, 1) translate(-15.000000, -15.000000) "><path d="M-5.36940717,3.90110266 L-5.36940717,33.9011027 L9.63059283,33.9011027 L-5.36940717,3.90110266 Z" transform="translate(9.630593, 18.901103) rotate(18.000000) translate(-9.630593, -18.901103) "/></g></g><g><g transform="translate(44.265848, 25.364745) rotate(72.000000) translate(-44.265848, -25.364745) translate(14.265848, 10.364745)"><g><path d="M24.6305928,3.90110266 L24.6305928,33.9011027 L39.6305928,33.9011027 L24.6305928,3.90110266 Z" transform="translate(39.630593, 18.901103) rotate(18.000000) translate(-39.630593, -18.901103) "/><g transform="translate(15.000000, 15.000000) scale(-1, 1) translate(-15.000000, -15.000000) "><path d="M-5.36940717,3.90110266 L-5.36940717,33.9011027 L9.63059283,33.9011027 L-5.36940717,3.90110266 Z" transform="translate(9.630593, 18.901103) rotate(18.000000) translate(-9.630593, -18.901103) "/></g></g></g><g transform="translate(38.816779, 42.135255) rotate(144.000000) translate(-38.816779, -42.135255) translate(8.816779, 27.135255)"><g><path d="M24.6305928,3.90110266 L24.6305928,33.9011027 L39.6305928,33.9011027 L24.6305928,3.90110266 Z" transform="translate(39.630593, 18.901103) rotate(18.000000) translate(-39.630593, -18.901103) "/><g transform="translate(15.000000, 15.000000) scale(-1, 1) translate(-15.000000, -15.000000) "><path d="M-5.36940717,3.90110266 L-5.36940717,33.9011027 L9.63059283,33.9011027 L-5.36940717,3.90110266 Z" transform="translate(9.630593, 18.901103) rotate(18.000000) translate(-9.630593, -18.901103) "/></g></g></g></g><g transform="translate(30.000000, 30.000000) scale(-1, 1) translate(-30.000000, -30.000000) "><g><g transform="translate(44.265848, 25.364745) rotate(72.000000) translate(-44.265848, -25.364745) translate(14.265848, 10.364745)"><g><path d="M24.6305928,3.90110266 L24.6305928,33.9011027 L39.6305928,33.9011027 L24.6305928,3.90110266 Z" transform="translate(39.630593, 18.901103) rotate(18.000000) translate(-39.630593, -18.901103) "/><g transform="translate(15.000000, 15.000000) scale(-1, 1) translate(-15.000000, -15.000000) "><path d="M-5.36940717,3.90110266 L-5.36940717,33.9011027 L9.63059283,33.9011027 L-5.36940717,3.90110266 Z" transform="translate(9.630593, 18.901103) rotate(18.000000) translate(-9.630593, -18.901103) "/></g></g></g><g transform="translate(38.816779, 42.135255) rotate(144.000000) translate(-38.816779, -42.135255) translate(8.816779, 27.135255)"><g><path d="M24.6305928,3.90110266 L24.6305928,33.9011027 L39.6305928,33.9011027 L24.6305928,3.90110266 Z" transform="translate(39.630593, 18.901103) rotate(18.000000) translate(-39.630593, -18.901103) "/><g transform="translate(15.000000, 15.000000) scale(-1, 1) translate(-15.000000, -15.000000) "><path d="M-5.36940717,3.90110266 L-5.36940717,33.9011027 L9.63059283,33.9011027 L-5.36940717,3.90110266 Z" transform="translate(9.630593, 18.901103) rotate(18.000000) translate(-9.630593, -18.901103) "/></g></g></g></g></g></g></g></g><g transform="translate(345.000000, 195.000000) scale(-1, 1) translate(-345.000000, -195.000000) translate(270.000000, 0.000000)"><g><g transform="translate(0.000000, 180.000000)"><g><g><path d="M24.6305928,3.90110266 L24.6305928,33.9011027 L39.6305928,33.9011027 L24.6305928,3.90110266 Z" transform="translate(39.630593, 18.901103) rotate(18.000000) translate(-39.630593, -18.901103) "/><g transform="translate(15.000000, 15.000000) scale(-1, 1) translate(-15.000000, -15.000000) "><path d="M-5.36940717,3.90110266 L-5.36940717,33.9011027 L9.63059283,33.9011027 L-5.36940717,3.90110266 Z" transform="translate(9.630593, 18.901103) rotate(18.000000) translate(-9.630593, -18.901103) "/></g></g><g><g transform="translate(44.265848, 25.364745) rotate(72.000000) translate(-44.265848, -25.364745) translate(14.265848, 10.364745)"><g><path d="M24.6305928,3.90110266 L24.6305928,33.9011027 L39.6305928,33.9011027 L24.6305928,3.90110266 Z" transform="translate(39.630593, 18.901103) rotate(18.000000) translate(-39.630593, -18.901103) "/><g transform="translate(15.000000, 15.000000) scale(-1, 1) translate(-15.000000, -15.000000) "><path d="M-5.36940717,3.90110266 L-5.36940717,33.9011027 L9.63059283,33.9011027 L-5.36940717,3.90110266 Z" transform="translate(9.630593, 18.901103) rotate(18.000000) translate(-9.630593, -18.901103) "/></g></g></g><g transform="translate(38.816779, 42.135255) rotate(144.000000) translate(-38.816779, -42.135255) translate(8.816779, 27.135255)"><g><path d="M24.6305928,3.90110266 L24.6305928,33.9011027 L39.6305928,33.9011027 L24.6305928,3.90110266 Z" transform="translate(39.630593, 18.901103) rotate(18.000000) translate(-39.630593, -18.901103) "/><g transform="translate(15.000000, 15.000000) scale(-1, 1) translate(-15.000000, -15.000000) "><path d="M-5.36940717,3.90110266 L-5.36940717,33.9011027 L9.63059283,33.9011027 L-5.36940717,3.90110266 Z" transform="translate(9.630593, 18.901103) rotate(18.000000) translate(-9.630593, -18.901103) "/></g></g></g></g><g transform="translate(30.000000, 30.000000) scale(-1, 1) translate(-30.000000, -30.000000) "><g><g transform="translate(44.265848, 25.364745) rotate(72.000000) translate(-44.265848, -25.364745) translate(14.265848, 10.364745)"><g><path d="M24.6305928,3.90110266 L24.6305928,33.9011027 L39.6305928,33.9011027 L24.6305928,3.90110266 Z" transform="translate(39.630593, 18.901103) rotate(18.000000) translate(-39.630593, -18.901103) "/><g transform="translate(15.000000, 15.000000) scale(-1, 1) translate(-15.000000, -15.000000) "><path d="M-5.36940717,3.90110266 L-5.36940717,33.9011027 L9.63059283,33.9011027 L-5.36940717,3.90110266 Z" transform="translate(9.630593, 18.901103) rotate(18.000000) translate(-9.630593, -18.901103) "/></g></g></g><g transform="translate(38.816779, 42.135255) rotate(144.000000) translate(-38.816779, -42.135255) translate(8.816779, 27.135255)"><g><path d="M24.6305928,3.90110266 L24.6305928,33.9011027 L39.6305928,33.9011027 L24.6305928,3.90110266 Z" transform="translate(39.630593, 18.901103) rotate(18.000000) translate(-39.630593, -18.901103) "/><g transform="translate(15.000000, 15.000000) scale(-1, 1) translate(-15.000000, -15.000000) "><path d="M-5.36940717,3.90110266 L-5.36940717,33.9011027 L9.63059283,33.9011027 L-5.36940717,3.90110266 Z" transform="translate(9.630593, 18.901103) rotate(18.000000) translate(-9.630593, -18.901103) "/></g></g></g></g></g></g></g><g transform="translate(120.000000, 54.115427) rotate(216.000000) translate(-120.000000, -54.115427) translate(90.000000, 24.115427)"><g><g><path d="M24.6305928,3.90110266 L24.6305928,33.9011027 L39.6305928,33.9011027 L24.6305928,3.90110266 Z" transform="translate(39.630593, 18.901103) rotate(18.000000) translate(-39.630593, -18.901103) "/><g transform="translate(15.000000, 15.000000) scale(-1, 1) translate(-15.000000, -15.000000) "><path d="M-5.36940717,3.90110266 L-5.36940717,33.9011027 L9.63059283,33.9011027 L-5.36940717,3.90110266 Z" transform="translate(9.630593, 18.901103) rotate(18.000000) translate(-9.630593, -18.901103) "/></g></g><g><g transform="translate(44.265848, 25.364745) rotate(72.000000) translate(-44.265848, -25.364745) translate(14.265848, 10.364745)"><g><path d="M24.6305928,3.90110266 L24.6305928,33.9011027 L39.6305928,33.9011027 L24.6305928,3.90110266 Z" transform="translate(39.630593, 18.901103) rotate(18.000000) translate(-39.630593, -18.901103) "/><g transform="translate(15.000000, 15.000000) scale(-1, 1) translate(-15.000000, -15.000000) "><path d="M-5.36940717,3.90110266 L-5.36940717,33.9011027 L9.63059283,33.9011027 L-5.36940717,3.90110266 Z" transform="translate(9.630593, 18.901103) rotate(18.000000) translate(-9.630593, -18.901103) "/></g></g></g><g transform="translate(38.816779, 42.135255) rotate(144.000000) translate(-38.816779, -42.135255) translate(8.816779, 27.135255)"><g><path d="M24.6305928,3.90110266 L24.6305928,33.9011027 L39.6305928,33.9011027 L24.6305928,3.90110266 Z" transform="translate(39.630593, 18.901103) rotate(18.000000) translate(-39.630593, -18.901103) "/><g transform="translate(15.000000, 15.000000) scale(-1, 1) translate(-15.000000, -15.000000) "><path d="M-5.36940717,3.90110266 L-5.36940717,33.9011027 L9.63059283,33.9011027 L-5.36940717,3.90110266 Z" transform="translate(9.630593, 18.901103) rotate(18.000000) translate(-9.630593, -18.901103) "/></g></g></g></g><g transform="translate(30.000000, 30.000000) scale(-1, 1) translate(-30.000000, -30.000000) "><g><g transform="translate(44.265848, 25.364745) rotate(72.000000) translate(-44.265848, -25.364745) translate(14.265848, 10.364745)"><g><path d="M24.6305928,3.90110266 L24.6305928,33.9011027 L39.6305928,33.9011027 L24.6305928,3.90110266 Z" transform="translate(39.630593, 18.901103) rotate(18.000000) translate(-39.630593, -18.901103) "/><g transform="translate(15.000000, 15.000000) scale(-1, 1) translate(-15.000000, -15.000000) "><path d="M-5.36940717,3.90110266 L-5.36940717,33.9011027 L9.63059283,33.9011027 L-5.36940717,3.90110266 Z" transform="translate(9.630593, 18.901103) rotate(18.000000) translate(-9.630593, -18.901103) "/></g></g></g><g transform="translate(38.816779, 42.135255) rotate(144.000000) translate(-38.816779, -42.135255) translate(8.816779, 27.135255)"><g><path d="M24.6305928,3.90110266 L24.6305928,33.9011027 L39.6305928,33.9011027 L24.6305928,3.90110266 Z" transform="translate(39.630593, 18.901103) rotate(18.000000) translate(-39.630593, -18.901103) "/><g transform="translate(15.000000, 15.000000) scale(-1, 1) translate(-15.000000, -15.000000) "><path d="M-5.36940717,3.90110266 L-5.36940717,33.9011027 L9.63059283,33.9011027 L-5.36940717,3.90110266 Z" transform="translate(9.630593, 18.901103) rotate(18.000000) translate(-9.630593, -18.901103) "/></g></g></g></g></g></g></g><g transform="translate(54.115427, 120.000000) rotate(144.000000) translate(-54.115427, -120.000000) translate(24.115427, 90.000000)"><g><g><path d="M24.6305928,3.90110266 L24.6305928,33.9011027 L39.6305928,33.9011027 L24.6305928,3.90110266 Z" transform="translate(39.630593, 18.901103) rotate(18.000000) translate(-39.630593, -18.901103) "/><g transform="translate(15.000000, 15.000000) scale(-1, 1) translate(-15.000000, -15.000000) "><path d="M-5.36940717,3.90110266 L-5.36940717,33.9011027 L9.63059283,33.9011027 L-5.36940717,3.90110266 Z" transform="translate(9.630593, 18.901103) rotate(18.000000) translate(-9.630593, -18.901103) "/></g></g><g><g transform="translate(44.265848, 25.364745) rotate(72.000000) translate(-44.265848, -25.364745) translate(14.265848, 10.364745)"><g><path d="M24.6305928,3.90110266 L24.6305928,33.9011027 L39.6305928,33.9011027 L24.6305928,3.90110266 Z" transform="translate(39.630593, 18.901103) rotate(18.000000) translate(-39.630593, -18.901103) "/><g transform="translate(15.000000, 15.000000) scale(-1, 1) translate(-15.000000, -15.000000) "><path d="M-5.36940717,3.90110266 L-5.36940717,33.9011027 L9.63059283,33.9011027 L-5.36940717,3.90110266 Z" transform="translate(9.630593, 18.901103) rotate(18.000000) translate(-9.630593, -18.901103) "/></g></g></g><g transform="translate(38.816779, 42.135255) rotate(144.000000) translate(-38.816779, -42.135255) translate(8.816779, 27.135255)"><g><path d="M24.6305928,3.90110266 L24.6305928,33.9011027 L39.6305928,33.9011027 L24.6305928,3.90110266 Z" transform="translate(39.630593, 18.901103) rotate(18.000000) translate(-39.630593, -18.901103) "/><g transform="translate(15.000000, 15.000000) scale(-1, 1) translate(-15.000000, -15.000000) "><path d="M-5.36940717,3.90110266 L-5.36940717,33.9011027 L9.63059283,33.9011027 L-5.36940717,3.90110266 Z" transform="translate(9.630593, 18.901103) rotate(18.000000) translate(-9.630593, -18.901103) "/></g></g></g></g><g transform="translate(30.000000, 30.000000) scale(-1, 1) translate(-30.000000, -30.000000) "><g><g transform="translate(44.265848, 25.364745) rotate(72.000000) translate(-44.265848, -25.364745) translate(14.265848, 10.364745)"><g><path d="M24.6305928,3.90110266 L24.6305928,33.9011027 L39.6305928,33.9011027 L24.6305928,3.90110266 Z" transform="translate(39.630593, 18.901103) rotate(18.000000) translate(-39.630593, -18.901103) "/><g transform="translate(15.000000, 15.000000) scale(-1, 1) translate(-15.000000, -15.000000) "><path d="M-5.36940717,3.90110266 L-5.36940717,33.9011027 L9.63059283,33.9011027 L-5.36940717,3.90110266 Z" transform="translate(9.630593, 18.901103) rotate(18.000000) translate(-9.630593, -18.901103) "/></g></g></g><g transform="translate(38.816779, 42.135255) rotate(144.000000) translate(-38.816779, -42.135255) translate(8.816779, 27.135255)"><g><path d="M24.6305928,3.90110266 L24.6305928,33.9011027 L39.6305928,33.9011027 L24.6305928,3.90110266 Z" transform="translate(39.630593, 18.901103) rotate(18.000000) translate(-39.630593, -18.901103) "/><g transform="translate(15.000000, 15.000000) scale(-1, 1) translate(-15.000000, -15.000000) "><path d="M-5.36940717,3.90110266 L-5.36940717,33.9011027 L9.63059283,33.9011027 L-5.36940717,3.90110266 Z" transform="translate(9.630593, 18.901103) rotate(18.000000) translate(-9.630593, -18.901103) "/></g></g></g></g></g></g></g><g transform="translate(54.115427, 300.000000) rotate(72.000000) translate(-54.115427, -300.000000) translate(24.115427, 270.000000)"><g><g><path d="M24.6305928,3.90110266 L24.6305928,33.9011027 L39.6305928,33.9011027 L24.6305928,3.90110266 Z" transform="translate(39.630593, 18.901103) rotate(18.000000) translate(-39.630593, -18.901103) "/><g transform="translate(15.000000, 15.000000) scale(-1, 1) translate(-15.000000, -15.000000) "><path d="M-5.36940717,3.90110266 L-5.36940717,33.9011027 L9.63059283,33.9011027 L-5.36940717,3.90110266 Z" transform="translate(9.630593, 18.901103) rotate(18.000000) translate(-9.630593, -18.901103) "/></g></g><g><g transform="translate(44.265848, 25.364745) rotate(72.000000) translate(-44.265848, -25.364745) translate(14.265848, 10.364745)"><g><path d="M24.6305928,3.90110266 L24.6305928,33.9011027 L39.6305928,33.9011027 L24.6305928,3.90110266 Z" transform="translate(39.630593, 18.901103) rotate(18.000000) translate(-39.630593, -18.901103) "/><g transform="translate(15.000000, 15.000000) scale(-1, 1) translate(-15.000000, -15.000000) "><path d="M-5.36940717,3.90110266 L-5.36940717,33.9011027 L9.63059283,33.9011027 L-5.36940717,3.90110266 Z" transform="translate(9.630593, 18.901103) rotate(18.000000) translate(-9.630593, -18.901103) "/></g></g></g><g transform="translate(38.816779, 42.135255) rotate(144.000000) translate(-38.816779, -42.135255) translate(8.816779, 27.135255)"><g><path d="M24.6305928,3.90110266 L24.6305928,33.9011027 L39.6305928,33.9011027 L24.6305928,3.90110266 Z" transform="translate(39.630593, 18.901103) rotate(18.000000) translate(-39.630593, -18.901103) "/><g transform="translate(15.000000, 15.000000) scale(-1, 1) translate(-15.000000, -15.000000) "><path d="M-5.36940717,3.90110266 L-5.36940717,33.9011027 L9.63059283,33.9011027 L-5.36940717,3.90110266 Z" transform="translate(9.630593, 18.901103) rotate(18.000000) translate(-9.630593, -18.901103) "/></g></g></g></g><g transform="translate(30.000000, 30.000000) scale(-1, 1) translate(-30.000000, -30.000000) "><g><g transform="translate(44.265848, 25.364745) rotate(72.000000) translate(-44.265848, -25.364745) translate(14.265848, 10.364745)"><g><path d="M24.6305928,3.90110266 L24.6305928,33.9011027 L39.6305928,33.9011027 L24.6305928,3.90110266 Z" transform="translate(39.630593, 18.901103) rotate(18.000000) translate(-39.630593, -18.901103) "/><g transform="translate(15.000000, 15.000000) scale(-1, 1) translate(-15.000000, -15.000000) "><path d="M-5.36940717,3.90110266 L-5.36940717,33.9011027 L9.63059283,33.9011027 L-5.36940717,3.90110266 Z" transform="translate(9.630593, 18.901103) rotate(18.000000) translate(-9.630593, -18.901103) "/></g></g></g><g transform="translate(38.816779, 42.135255) rotate(144.000000) translate(-38.816779, -42.135255) translate(8.816779, 27.135255)"><g><path d="M24.6305928,3.90110266 L24.6305928,33.9011027 L39.6305928,33.9011027 L24.6305928,3.90110266 Z" transform="translate(39.630593, 18.901103) rotate(18.000000) translate(-39.630593, -18.901103) "/><g transform="translate(15.000000, 15.000000) scale(-1, 1) translate(-15.000000, -15.000000) "><path d="M-5.36940717,3.90110266 L-5.36940717,33.9011027 L9.63059283,33.9011027 L-5.36940717,3.90110266 Z" transform="translate(9.630593, 18.901103) rotate(18.000000) translate(-9.630593, -18.901103) "/></g></g></g></g></g></g></g><g transform="translate(120.000000, 365.884573) rotate(72.000000) translate(-120.000000, -365.884573) translate(90.000000, 335.884573)"><g><g><path d="M24.6305928,3.90110266 L24.6305928,33.9011027 L39.6305928,33.9011027 L24.6305928,3.90110266 Z" transform="translate(39.630593, 18.901103) rotate(18.000000) translate(-39.630593, -18.901103) "/><g transform="translate(15.000000, 15.000000) scale(-1, 1) translate(-15.000000, -15.000000) "><path d="M-5.36940717,3.90110266 L-5.36940717,33.9011027 L9.63059283,33.9011027 L-5.36940717,3.90110266 Z" transform="translate(9.630593, 18.901103) rotate(18.000000) translate(-9.630593, -18.901103) "/></g></g><g><g transform="translate(44.265848, 25.364745) rotate(72.000000) translate(-44.265848, -25.364745) translate(14.265848, 10.364745)"><g><path d="M24.6305928,3.90110266 L24.6305928,33.9011027 L39.6305928,33.9011027 L24.6305928,3.90110266 Z" transform="translate(39.630593, 18.901103) rotate(18.000000) translate(-39.630593, -18.901103) "/><g transform="translate(15.000000, 15.000000) scale(-1, 1) translate(-15.000000, -15.000000) "><path d="M-5.36940717,3.90110266 L-5.36940717,33.9011027 L9.63059283,33.9011027 L-5.36940717,3.90110266 Z" transform="translate(9.630593, 18.901103) rotate(18.000000) translate(-9.630593, -18.901103) "/></g></g></g><g transform="translate(38.816779, 42.135255) rotate(144.000000) translate(-38.816779, -42.135255) translate(8.816779, 27.135255)"><g><path d="M24.6305928,3.90110266 L24.6305928,33.9011027 L39.6305928,33.9011027 L24.6305928,3.90110266 Z" transform="translate(39.630593, 18.901103) rotate(18.000000) translate(-39.630593, -18.901103) "/><g transform="translate(15.000000, 15.000000) scale(-1, 1) translate(-15.000000, -15.000000) "><path d="M-5.36940717,3.90110266 L-5.36940717,33.9011027 L9.63059283,33.9011027 L-5.36940717,3.90110266 Z" transform="translate(9.630593, 18.901103) rotate(18.000000) translate(-9.630593, -18.901103) "/></g></g></g></g><g transform="translate(30.000000, 30.000000) scale(-1, 1) translate(-30.000000, -30.000000) "><g><g transform="translate(44.265848, 25.364745) rotate(72.000000) translate(-44.265848, -25.364745) translate(14.265848, 10.364745)"><g><path d="M24.6305928,3.90110266 L24.6305928,33.9011027 L39.6305928,33.9011027 L24.6305928,3.90110266 Z" transform="translate(39.630593, 18.901103) rotate(18.000000) translate(-39.630593, -18.901103) "/><g transform="translate(15.000000, 15.000000) scale(-1, 1) translate(-15.000000, -15.000000) "><path d="M-5.36940717,3.90110266 L-5.36940717,33.9011027 L9.63059283,33.9011027 L-5.36940717,3.90110266 Z" transform="translate(9.630593, 18.901103) rotate(18.000000) translate(-9.630593, -18.901103) "/></g></g></g><g transform="translate(38.816779, 42.135255) rotate(144.000000) translate(-38.816779, -42.135255) translate(8.816779, 27.135255)"><g><path d="M24.6305928,3.90110266 L24.6305928,33.9011027 L39.6305928,33.9011027 L24.6305928,3.90110266 Z" transform="translate(39.630593, 18.901103) rotate(18.000000) translate(-39.630593, -18.901103) "/><g transform="translate(15.000000, 15.000000) scale(-1, 1) translate(-15.000000, -15.000000) "><path d="M-5.36940717,3.90110266 L-5.36940717,33.9011027 L9.63059283,33.9011027 L-5.36940717,3.90110266 Z" transform="translate(9.630593, 18.901103) rotate(18.000000) translate(-9.630593, -18.901103) "/></g></g></g></g></g></g></g></g></g></g></g></g></g><g id="SvgjsG2024" featureKey="nameFeature-0" transform="matrix(1.057197226224992,0,0,1.057197226224992,106.20983922279062,1.9086315795798114)" fill="#fff"><path d="M18.75 15.254000000000001 l-11.406 0 l0 9.9023 l10.02 0 l0 2.4805 l-10.02 0 l0 9.8633 l11.406 0 l0 2.5 l-14.219 0 l0 -27.246 l14.219 0 l0 2.5 z M37.82784375 40.37109 c-5.4688 0 -9.6484 -3.5156 -9.6484 -9.2188 l0 -18.398 l2.7148 0 l0 18.008 c0 4.6875 3.0078 7.0898 6.9336 7.0898 c3.9063 0 6.9922 -2.4219 6.9922 -7.0898 l0 -18.008 l2.6953 0 l0 18.398 c0 5.7031 -4.1992 9.2188 -9.6875 9.2188 z M74.0155625 40 l-6.9727 -12.402 l-5.1953 0 l0 12.402 l-2.7148 0 l0 -27.246 l8.75 0 c5.3906 0 8.0078 3.3789 8.0078 7.5391 c0 3.75 -2.207 6.6016 -6.1523 7.1875 l7.4023 12.52 l-3.125 0 z M61.8476625 15.195 l0 10.117 l5.7227 0 c3.8867 0 5.7031 -2.0508 5.7031 -5.0195 c0 -2.9297 -1.8164 -5.0977 -5.7031 -5.0977 l-5.7227 0 z M98.2503125 40.37109 c-7.5391 0 -13.438 -5.2344 -13.438 -14.004 c0 -8.75 5.8984 -13.984 13.438 -13.984 c7.4805 0 13.418 5.2344 13.418 13.984 c0 8.7695 -5.9375 14.004 -13.418 14.004 z M98.2503125 37.7539 c5.9375 0 10.684 -4.082 10.684 -11.387 c0 -7.2656 -4.7461 -11.328 -10.684 -11.328 c-5.957 0 -10.742 4.0625 -10.742 11.328 c0 7.3047 4.7852 11.387 10.742 11.387 z M135.41020625 40 l0 -27.246 l2.7148 0 l0 27.246 l-2.7148 0 z M168.5118125 12.754000000000001 l2.6758 0 l0 27.246 l-2.6563 0 l-15.605 -22.91 l0 22.91 l-2.6367 0 l0 -27.246 l2.6367 0 l15.586 22.813 l0 -22.813 z M183.37114375 40 l0 -27.246 l8.418 0 c8.2031 0 12.441 5.7031 12.441 13.613 c0 7.9297 -4.2383 13.633 -12.441 13.633 l-8.418 0 z M186.08594375 37.5 l5.6445 0 c6.543 0 9.707 -4.4922 9.707 -11.133 c0 -6.6211 -3.1641 -11.113 -9.707 -11.113 l-5.6445 0 l0 22.246 z M214.578175 40 l0 -27.246 l2.7148 0 l0 27.246 l-2.7148 0 z M246.72278125 40 l-2.4609 -6.8359 l-12.637 0 l-2.4609 6.8359 l-2.8711 0 l10.039 -27.246 l3.2031 0 l10.039 27.246 l-2.8516 0 z M232.52348125 30.6836 l10.84 0 l-5.4297 -15.078 z"/></g><g id="SvgjsG2025" featureKey="sloganFeature-0" transform="matrix(0.7529851807458104,0,0,0.7529851807458104,110.22796463370024,60.57326640614031)" fill="#fff"><path d="M8.0566 20.18555 c-4.0039 0 -7.0313 -2.7441 -7.0313 -7.1582 c0 -4.4043 3.0273 -7.1484 7.0313 -7.1484 c3.9941 0 7.0215 2.7441 7.0215 7.1484 c0 4.4141 -3.0273 7.1582 -7.0215 7.1582 z M8.0566 18.0176 c2.6367 0 4.6973 -1.8262 4.6973 -4.9902 c0 -3.1348 -2.0605 -4.9707 -4.6973 -4.9707 s-4.6973 1.8359 -4.6973 4.9707 c0 3.1641 2.0605 4.9902 4.6973 4.9902 z M32.26047265625 6.074 l2.334 0 l0 13.926 l-2.6172 0 l-6.8359 -10.625 l0 10.625 l-2.3145 0 l0 -13.926 l2.5879 0 l6.8457 10.557 l0 -10.557 z M51.0732171875 8.154 l-5.4102 0 l0 3.8574 l4.7852 0 l0 2.0605 l-4.7852 0 l0 3.8379 l5.4102 0 l0 2.0898 l-7.7734 0 l0 -13.926 l7.7734 0 l0 2.0801 z M73.36714375 20.18555 c-2.9492 0 -5.1563 -1.4063 -5.6055 -3.8672 l2.4023 -0.55664 c0.25391 1.6016 1.5723 2.4805 3.291 2.4805 c1.3574 0 2.5879 -0.57617 2.5684 -2.041 c-0.019531 -1.5234 -1.709 -1.9629 -3.5352 -2.4805 c-2.1094 -0.61523 -4.2773 -1.3184 -4.2773 -3.877 c0 -2.5977 2.1289 -3.9648 4.7754 -3.9648 c2.4414 0 4.7559 1.0254 5.293 3.5254 l-2.2559 0.56641 c-0.3125 -1.4844 -1.4648 -2.1387 -2.9199 -2.1387 c-1.2988 0 -2.5293 0.55664 -2.5293 1.9727 c0 1.2891 1.4746 1.6895 3.1641 2.1582 c2.1777 0.60547 4.6973 1.3477 4.6973 4.1406 c0 2.8809 -2.4121 4.082 -5.0684 4.082 z M93.84029765625 6.074 l0 2.0801 l-3.4375 0 l0 11.846 l-2.3242 0 l0 -11.846 l-3.4473 0 l0 -2.0801 l9.209 0 z M107.0868734375 20.18555 c-4.0039 0 -7.0313 -2.7441 -7.0313 -7.1582 c0 -4.4043 3.0273 -7.1484 7.0313 -7.1484 c3.9941 0 7.0215 2.7441 7.0215 7.1484 c0 4.4141 -3.0273 7.1582 -7.0215 7.1582 z M107.0868734375 18.0176 c2.6367 0 4.6973 -1.8262 4.6973 -4.9902 c0 -3.1348 -2.0605 -4.9707 -4.6973 -4.9707 s-4.6973 1.8359 -4.6973 4.9707 c0 3.1641 2.0605 4.9902 4.6973 4.9902 z M127.39404609375 6.074 c2.6172 0 4.2871 1.9629 4.2871 4.3848 c0 2.4609 -1.6699 4.3457 -4.2871 4.3457 l-3.2031 0 l0 5.1953 l-2.334 0 l0 -13.926 l5.5371 0 z M127.02294609375 12.8125 c1.5625 0 2.3828 -0.95703 2.3828 -2.3828 c0 -1.377 -0.82031 -2.3828 -2.3828 -2.3828 l-2.832 0 l0 4.7656 l2.832 0 z M153.55513203125 20.18555 c-2.9492 0 -5.1563 -1.4063 -5.6055 -3.8672 l2.4023 -0.55664 c0.25391 1.6016 1.5723 2.4805 3.291 2.4805 c1.3574 0 2.5879 -0.57617 2.5684 -2.041 c-0.019531 -1.5234 -1.709 -1.9629 -3.5352 -2.4805 c-2.1094 -0.61523 -4.2773 -1.3184 -4.2773 -3.877 c0 -2.5977 2.1289 -3.9648 4.7754 -3.9648 c2.4414 0 4.7559 1.0254 5.293 3.5254 l-2.2559 0.56641 c-0.3125 -1.4844 -1.4648 -2.1387 -2.9199 -2.1387 c-1.2988 0 -2.5293 0.55664 -2.5293 1.9727 c0 1.2891 1.4746 1.6895 3.1641 2.1582 c2.1777 0.60547 4.6973 1.3477 4.6973 4.1406 c0 2.8809 -2.4121 4.082 -5.0684 4.082 z M172.4071859375 20.18555 c-4.0039 0 -7.0313 -2.7441 -7.0313 -7.1582 c0 -4.4043 3.0273 -7.1484 7.0313 -7.1484 c3.9941 0 7.0215 2.7441 7.0215 7.1484 c0 4.4141 -3.0273 7.1582 -7.0215 7.1582 z M172.4071859375 18.0176 c2.6367 0 4.6973 -1.8262 4.6973 -4.9902 c0 -3.1348 -2.0605 -4.9707 -4.6973 -4.9707 s-4.6973 1.8359 -4.6973 4.9707 c0 3.1641 2.0605 4.9902 4.6973 4.9902 z M189.51125859375 17.9102 l4.5996 0 l0 2.0898 l-6.9336 0 l0 -13.926 l2.334 0 l0 11.836 z M206.2832125 20.18555 c-2.959 0 -5.2637 -1.6504 -5.2637 -4.9316 l0 -9.1797 l2.3438 0 l0 8.8574 c0 2.2168 1.2793 3.1641 2.9199 3.1641 s2.9395 -0.95703 2.9395 -3.1641 l0 -8.8574 l2.334 0 l0 9.1797 c0 3.2813 -2.3047 4.9316 -5.2734 4.9316 z M227.65475078125 6.074 l0 2.0801 l-3.4375 0 l0 11.846 l-2.3242 0 l0 -11.846 l-3.4473 0 l0 -2.0801 l9.209 0 z M234.8369265625 20 l0 -13.926 l2.334 0 l0 13.926 l-2.334 0 z M251.94087734375 20.18555 c-4.0039 0 -7.0313 -2.7441 -7.0313 -7.1582 c0 -4.4043 3.0273 -7.1484 7.0313 -7.1484 c3.9941 0 7.0215 2.7441 7.0215 7.1484 c0 4.4141 -3.0273 7.1582 -7.0215 7.1582 z M251.94087734375 18.0176 c2.6367 0 4.6973 -1.8262 4.6973 -4.9902 c0 -3.1348 -2.0605 -4.9707 -4.6973 -4.9707 s-4.6973 1.8359 -4.6973 4.9707 c0 3.1641 2.0605 4.9902 4.6973 4.9902 z M276.14475 6.074 l2.334 0 l0 13.926 l-2.6172 0 l-6.8359 -10.625 l0 10.625 l-2.3145 0 l0 -13.926 l2.5879 0 l6.8457 10.557 l0 -10.557 z"/></g>
			</g>
		</svg>
	